<svg width="1600" height="900" viewBox="0 0 1600 900" xmlns="http://www.w3.org/2000/svg">
  <defs>
    <linearGradient id="bg" x1="0" y1="0" x2="1" y2="1">
      <stop offset="0%" stop-color="#f2faf7"/>
      <stop offset="100%" stop-color="#dff1ea"/>
    </linearGradient>
    <linearGradient id="line" x1="0" y1="0" x2="1" y2="0">
      <stop offset="0%" stop-color="#5f9e89"/>
      <stop offset="100%" stop-color="#79b79f"/>
    </linearGradient>
  </defs>

  <rect width="1600" height="900" fill="url(#bg)"/>

  <g opacity="0.32" stroke="#bdd7cc" stroke-width="1.4">
    <path d="M0 225 H1600"/>
    <path d="M0 450 H1600"/>
    <path d="M0 675 H1600"/>
    <path d="M320 0 V900"/>
    <path d="M640 0 V900"/>
    <path d="M960 0 V900"/>
    <path d="M1280 0 V900"/>
  </g>

  <rect x="160" y="290" width="220" height="320" rx="18" fill="#cee6dd" stroke="#79b6a1" stroke-width="2"/>
  <rect x="195" y="350" width="145" height="9" rx="4.5" fill="#7fae9d"/>
  <rect x="195" y="377" width="170" height="9" rx="4.5" fill="#9ec5b7"/>
  <rect x="195" y="404" width="120" height="9" rx="4.5" fill="#7fae9d"/>

  <rect x="500" y="340" width="220" height="220" rx="18" fill="#d2e8e0" stroke="#7ab6a1" stroke-width="2"/>
  <circle cx="610" cy="450" r="54" fill="#bdddd2" stroke="#6ca992" stroke-width="2"/>

  <rect x="830" y="340" width="220" height="220" rx="18" fill="#d2e8e0" stroke="#72ae99" stroke-width="2"/>
  <path d="M880 470 H1000" stroke="#6ca992" stroke-width="3"/>
  <path d="M880 430 H970" stroke="#88b9a8" stroke-width="3"/>

  <rect x="1150" y="220" width="300" height="460" rx="18" fill="#fcfffe" stroke="#a7c9bb" stroke-width="3"/>
  <rect x="1185" y="282" width="230" height="10" rx="5" fill="#739f8e"/>
  <rect x="1185" y="316" width="190" height="10" rx="5" fill="#96bbad"/>
  <rect x="1185" y="350" width="240" height="10" rx="5" fill="#96bbad"/>
  <rect x="1185" y="404" width="230" height="130" rx="10" fill="#deede7"/>

  <path d="M380 450 H500" stroke="url(#line)" stroke-width="5" stroke-linecap="round"/>
  <path d="M720 450 H830" stroke="url(#line)" stroke-width="5" stroke-linecap="round"/>
  <path d="M1050 450 H1150" stroke="url(#line)" stroke-width="5" stroke-linecap="round"/>

  <text x="800" y="830" fill="#7d9f93" text-anchor="middle" font-family="Segoe UI, Arial" font-size="24" letter-spacing="1.5">CONTENT SYNTHESIS PIPELINE</text>
</svg>
